<?xml version="1.0" standalone="no"?>
<!DOCTYPE svg PUBLIC "-//W3C//DTD SVG 20010904//EN"
 "http://www.w3.org/TR/2001/REC-SVG-20010904/DTD/svg10.dtd">
<svg version="1.0" xmlns="http://www.w3.org/2000/svg"
 width="507.000000pt" height="478.000000pt" viewBox="0 0 507.000000 478.000000"
 preserveAspectRatio="xMidYMid meet">

<g transform="translate(0.000000,478.000000) scale(0.100000,-0.100000)"
fill="#000000" stroke="none">
<path d="M3246 4300 c-147 -37 -275 -74 -282 -82 -11 -11 -12 -21 -5 -40 8
-21 23 -28 98 -47 48 -13 105 -28 126 -34 l37 -10 0 -100 c0 -93 -2 -104 -35
-171 -19 -39 -45 -109 -56 -155 -27 -108 -21 -168 27 -246 19 -32 34 -60 34
-64 0 -4 -15 -12 -34 -19 -74 -27 -167 -162 -200 -289 -20 -77 -20 -113 0
-141 19 -27 39 -28 89 -2 22 11 39 20 40 20 0 0 1 -37 1 -83 2 -124 43 -205
134 -259 19 -12 37 -23 39 -24 2 -2 -8 -17 -23 -34 -37 -45 -36 -101 3 -141
34 -34 54 -36 100 -11 33 18 35 18 70 0 19 -10 43 -18 52 -18 28 0 59 48 59
92 l0 39 53 -3 52 -3 6 -49 c6 -58 29 -80 73 -72 16 4 38 13 47 22 17 15 21
14 53 -6 44 -26 86 -20 116 17 27 35 25 82 -6 128 -27 41 -27 40 27 70 37 20
86 84 104 135 8 24 15 77 15 121 0 44 2 79 5 79 2 0 19 -9 37 -20 75 -45 103
-21 96 84 -9 135 -106 300 -200 341 -24 11 -45 20 -47 22 -2 1 8 20 22 40 70
102 77 178 28 329 -30 95 -31 106 -29 238 l3 138 94 29 c109 34 123 43 119 78
-3 24 -10 28 -93 47 -153 37 -559 124 -570 123 -5 -1 -131 -32 -279 -69z m614
-365 c0 -8 -4 -15 -10 -15 -5 0 -10 7 -10 15 0 8 5 15 10 15 6 0 10 -7 10 -15z
m10 -44 c21 -40 9 -101 -20 -101 -20 0 -30 19 -30 56 0 29 16 64 30 64 5 0 14
-9 20 -19z m-531 -75 c53 -28 200 -49 291 -42 47 3 97 9 113 12 16 4 27 2 27
-4 0 -6 -13 -13 -29 -17 -102 -22 -102 -178 0 -199 75 -15 143 58 120 127 -6
16 -11 31 -11 33 0 1 14 7 31 13 29 10 31 9 45 -25 23 -56 36 -142 29 -194
-17 -120 -167 -200 -380 -200 -203 0 -360 77 -381 186 -15 83 19 221 72 292
28 36 34 38 73 18z m479 -98 c7 -7 12 -21 12 -33 0 -12 -5 -26 -12 -33 -7 -7
-21 -12 -33 -12 -12 0 -26 5 -33 12 -7 7 -12 21 -12 33 0 12 5 26 12 33 7 7
21 12 33 12 12 0 26 -5 33 -12z m-82 -89 c10 -17 -13 -36 -27 -22 -12 12 -4
33 11 33 5 0 12 -5 16 -11z m-359 -341 c121 -29 277 -29 390 0 45 12 88 22 96
22 18 0 61 -127 77 -233 15 -90 10 -151 -19 -228 -73 -194 -348 -269 -561
-153 -145 79 -193 244 -135 467 26 101 44 147 56 147 4 0 47 -10 96 -22z
m-382 -235 c-4 -16 -11 -53 -15 -83 l-7 -55 -2 51 c-1 47 14 114 26 114 3 0 2
-12 -2 -27z m189 -361 c13 -21 40 -52 60 -70 48 -42 30 -41 -26 1 -52 39 -94
120 -102 197 l-6 55 25 -72 c13 -40 35 -90 49 -111z m221 -192 c33 -7 63 -16
67 -19 4 -4 5 -23 1 -44 -7 -44 -24 -47 -59 -12 -14 14 -28 25 -33 25 -4 0
-22 -11 -41 -25 -39 -29 -53 -31 -74 -9 -24 23 -19 47 15 82 23 23 35 29 48
23 9 -5 43 -14 76 -21z m485 -51 c0 -14 -7 -33 -16 -40 -17 -14 -23 -11 -90
31 -18 11 -24 10 -47 -14 -33 -32 -55 -33 -63 -2 -12 48 -3 57 75 77 41 10 77
21 79 24 12 12 62 -50 62 -76z"/>
<path d="M3344 3760 c-40 -16 -66 -61 -61 -103 10 -74 73 -111 140 -83 41 17
59 45 59 91 0 43 -16 72 -52 90 -32 17 -54 18 -86 5z m94 -42 c7 -7 12 -21 12
-33 0 -12 -5 -26 -12 -33 -7 -7 -21 -12 -33 -12 -12 0 -26 5 -33 12 -7 7 -12
21 -12 33 0 12 5 26 12 33 7 7 21 12 33 12 12 0 26 -5 33 -12z m-82 -89 c10
-17 -13 -36 -27 -22 -12 12 -4 33 11 33 5 0 12 -5 16 -11z"/>
<path d="M3525 3581 c-31 -13 -85 -67 -85 -86 0 -42 40 -76 107 -88 37 -7 125
16 143 38 20 24 15 64 -11 91 -46 49 -103 65 -154 45z m110 -52 c43 -38 44
-50 6 -72 -55 -33 -161 -11 -161 33 0 23 65 70 97 70 12 0 38 -14 58 -31z"/>
<path d="M1740 4205 c0 -34 -42 -85 -93 -113 -29 -15 -74 -17 -450 -20 l-417
-3 0 -512 0 -512 105 3 105 3 0 -210 0 -211 25 0 25 0 0 210 0 210 98 0 c54 0
101 -2 104 -5 2 -3 -2 -40 -9 -82 -33 -182 12 -314 130 -390 l38 -24 -25 -30
c-39 -46 -36 -108 6 -144 34 -29 76 -29 108 0 14 13 21 12 55 -5 22 -11 47
-20 56 -20 27 0 51 36 57 85 l5 46 51 -3 51 -3 6 -49 c6 -58 29 -80 73 -72 16
4 38 13 47 22 17 15 21 14 53 -6 95 -58 176 49 111 145 -15 20 -25 38 -23 39
139 98 168 145 168 277 0 38 2 69 4 69 3 0 21 -9 40 -21 21 -12 48 -19 67 -17
42 4 54 41 37 113 -8 34 -13 220 -15 573 l-4 522 -238 0 c-132 0 -246 3 -255
6 -9 3 -16 15 -16 26 0 15 -5 18 -21 13 -18 -6 -20 -4 -14 28 5 28 2 39 -19
63 l-25 29 -1 -30z m-160 -169 c0 -2 -19 -16 -42 -31 -24 -16 -72 -56 -108
-89 l-64 -61 40 52 c49 62 90 98 136 118 38 16 38 16 38 11z m-509 -198 c15
-86 50 -290 63 -375 2 -13 -3 -28 -10 -34 -21 -17 -17 -50 10 -78 28 -31 41
-85 23 -100 -24 -20 -37 6 -51 105 -8 54 -31 209 -50 343 -20 134 -33 248 -30
253 13 21 27 -14 45 -114z m564 20 c18 -12 41 -34 51 -50 24 -35 28 -35 53 1
51 72 154 94 222 48 105 -70 171 -299 114 -397 -49 -82 -167 -132 -331 -138
-124 -5 -193 6 -274 44 -102 47 -140 99 -140 194 0 109 62 247 133 298 44 30
128 31 172 0z m-118 -570 c121 -29 277 -29 390 0 45 12 88 22 96 22 18 0 62
-134 78 -239 37 -244 -99 -413 -344 -429 -89 -5 -146 7 -230 51 -147 77 -199
238 -147 453 22 92 48 164 60 164 5 0 48 -10 97 -22z m-195 -593 c14 -23 42
-55 62 -73 48 -42 30 -41 -26 1 -56 43 -95 115 -102 192 l-6 60 23 -70 c13
-38 35 -88 49 -110z m222 -195 c75 -18 71 -13 67 -80 -1 -27 -23 -25 -61 6
l-31 26 -39 -27 c-42 -29 -75 -28 -85 5 -11 34 45 108 69 92 6 -3 42 -13 80
-22z m486 -51 c0 -14 -7 -33 -16 -40 -17 -14 -23 -11 -90 31 -18 11 -24 10
-47 -14 -33 -32 -55 -33 -63 -2 -12 48 -3 57 75 77 41 10 77 21 79 24 12 12
62 -50 62 -76z"/>
<path d="M1485 3761 c-62 -26 -82 -116 -37 -164 74 -79 205 -2 171 100 -18 55
-81 85 -134 64z m93 -43 c28 -28 7 -78 -33 -78 -27 0 -45 18 -45 45 0 27 18
45 45 45 12 0 26 -5 33 -12z m-82 -89 c10 -17 -13 -36 -27 -22 -12 12 -4 33
11 33 5 0 12 -5 16 -11z"/>
<path d="M1865 3761 c-62 -26 -82 -116 -36 -165 74 -78 204 -2 170 101 -18 55
-81 85 -134 64z m93 -43 c30 -30 3 -83 -39 -76 -32 5 -45 31 -31 62 13 28 49
35 70 14z m-82 -89 c10 -17 -13 -36 -27 -22 -12 12 -4 33 11 33 5 0 12 -5 16
-11z"/>
<path d="M1650 3571 c-52 -27 -76 -65 -64 -98 30 -85 223 -89 255 -6 12 32 -8
64 -61 101 -40 27 -84 28 -130 3z m125 -42 c43 -38 44 -50 6 -72 -39 -23 -98
-22 -138 3 -39 23 -36 41 16 75 47 33 73 31 116 -6z"/>
<path d="M1676 2142 c7 -26 -19 -76 -53 -100 -16 -10 -60 -31 -99 -46 -39 -14
-89 -40 -111 -56 -85 -63 -176 -216 -208 -352 -26 -113 -18 -178 35 -261 16
-26 30 -52 30 -56 0 -5 -20 -21 -45 -35 -105 -62 -136 -175 -70 -254 23 -28
24 -32 13 -98 -15 -101 -6 -210 25 -270 27 -52 49 -76 110 -116 33 -22 36 -27
22 -38 -51 -42 -55 -123 -8 -160 31 -24 63 -26 103 -5 27 14 33 14 60 0 31
-16 68 -19 87 -7 15 10 33 57 33 88 0 22 4 24 50 24 46 0 50 -2 50 -24 0 -31
18 -78 33 -88 19 -12 56 -9 87 7 27 14 33 14 60 0 40 -21 72 -19 103 5 47 37
43 118 -8 160 -14 11 -11 16 22 38 61 40 83 64 110 116 31 60 40 169 25 270
-11 67 -10 69 16 104 22 29 27 46 27 92 0 68 -30 114 -100 156 -25 14 -45 30
-45 35 0 4 14 30 30 56 35 55 50 102 50 158 0 118 -83 314 -172 406 -34 36
-76 67 -116 85 -40 19 -62 35 -62 46 0 20 -16 32 -25 18 -14 -23 -22 -8 -18
33 4 35 1 46 -20 66 -24 21 -25 22 -21 3z m-213 -222 c-33 -22 -81 -62 -106
-89 -26 -28 -47 -46 -47 -41 0 17 113 131 149 150 63 33 65 21 4 -20z m97
-130 c22 -11 50 -36 63 -55 12 -19 24 -35 27 -35 3 0 15 16 27 35 47 72 157
96 222 48 75 -56 132 -184 132 -300 0 -71 -16 -108 -63 -148 -165 -139 -573
-114 -675 41 -52 80 -19 266 64 364 61 71 129 88 203 50z m-127 -570 c114 -33
261 -37 382 -10 144 31 135 33 156 -25 26 -74 25 -78 -36 -108 -31 -15 -58
-27 -60 -27 -3 0 -5 20 -5 44 0 75 -4 76 -220 76 -216 0 -220 -1 -220 -76 0
-24 -2 -44 -5 -44 -16 0 -115 56 -115 66 0 10 13 50 35 112 6 15 2 16 88 -8z
m-245 -47 c-16 -18 -33 -67 -41 -113 -3 -17 -5 -13 -6 13 0 21 4 48 10 60 13
25 40 57 47 57 3 0 -2 -8 -10 -17z m597 -128 c0 -19 -8 -20 -129 -23 -131 -3
-154 3 -143 33 6 13 25 15 139 13 125 -3 133 -4 133 -23z m-10 -55 c-4 -6 -57
-10 -125 -10 -68 0 -121 4 -125 10 -4 6 40 10 125 10 85 0 129 -4 125 -10z
m-347 -242 c4 -120 0 -118 221 -118 226 0 221 -3 221 121 0 80 2 89 18 89 11
0 45 9 77 20 l58 20 -7 -43 c-29 -180 -223 -300 -433 -267 -164 26 -276 127
-299 267 l-6 42 73 -24 74 -23 3 -84z m-184 -101 c14 -30 44 -71 66 -91 45
-40 43 -46 -5 -16 -66 41 -116 138 -114 223 l1 42 12 -52 c7 -28 25 -76 40
-106z m239 -223 l68 -17 -3 -36 c-4 -47 -33 -54 -64 -16 l-22 27 -38 -26 c-21
-14 -46 -26 -54 -26 -22 0 -40 20 -40 44 0 26 50 77 69 71 9 -2 47 -12 84 -21z
m459 -1 c30 -28 36 -61 16 -81 -18 -18 -42 -15 -83 14 l-38 25 -21 -24 c-41
-48 -66 -40 -66 22 0 26 5 29 73 48 94 27 87 27 119 -4z"/>
<path d="M1389 1661 c-23 -23 -29 -38 -29 -71 0 -33 6 -48 29 -71 65 -64 171
-20 171 71 0 33 -6 48 -29 71 -23 23 -38 29 -71 29 -33 0 -48 -6 -71 -29z
m123 -18 c24 -21 23 -45 -2 -68 -30 -27 -70 -7 -70 34 0 45 39 64 72 34z m-82
-98 c0 -8 -7 -15 -15 -15 -8 0 -15 7 -15 15 0 8 7 15 15 15 8 0 15 -7 15 -15z"/>
<path d="M1769 1661 c-23 -23 -29 -38 -29 -71 0 -33 6 -48 29 -71 65 -64 171
-20 171 71 0 33 -6 48 -29 71 -23 23 -38 29 -71 29 -33 0 -48 -6 -71 -29z
m123 -18 c24 -21 23 -45 -2 -68 -30 -27 -70 -7 -70 34 0 45 39 64 72 34z m-79
-98 c1 -5 -6 -11 -15 -13 -11 -2 -18 3 -18 13 0 17 30 18 33 0z"/>
<path d="M1595 1501 c-86 -53 -98 -110 -30 -148 79 -45 206 -14 213 51 3 20
-4 37 -25 58 -56 59 -106 72 -158 39z m115 -41 c29 -16 44 -48 30 -66 -20 -24
-85 -36 -129 -24 -76 20 -78 56 -6 97 39 22 53 21 105 -7z"/>
<path d="M3510 2133 c0 -51 -48 -97 -133 -129 -134 -51 -212 -123 -277 -259
-68 -139 -89 -280 -55 -362 19 -44 19 -43 -5 -43 -11 0 -34 -13 -52 -29 -32
-29 -33 -31 -38 -138 -4 -59 -12 -121 -18 -136 -16 -39 -15 -82 3 -97 12 -10
15 -40 15 -154 0 -173 11 -203 80 -226 37 -12 89 -44 134 -81 5 -4 -3 -22 -18
-39 -38 -46 -36 -100 5 -134 35 -30 74 -33 107 -10 21 14 26 14 56 0 72 -34
116 -9 116 66 l0 38 55 0 55 0 0 -38 c0 -74 47 -101 114 -67 26 14 33 14 62 0
46 -21 77 -19 108 10 35 32 35 87 1 137 l-25 37 22 12 c13 6 34 21 48 34 14
12 44 27 68 34 72 20 82 48 82 222 0 118 3 149 15 159 18 15 19 58 3 97 -6 15
-14 77 -18 136 -5 107 -6 109 -38 138 -18 16 -42 29 -53 29 -16 0 -19 4 -14
18 5 9 15 42 23 73 15 53 15 61 -6 145 -34 138 -90 244 -170 323 -49 49 -81
73 -119 86 -44 16 -53 23 -53 42 0 21 -3 22 -20 13 -19 -10 -20 -9 -14 28 5
32 2 43 -20 68 l-25 29 -1 -32z m-160 -178 c0 -2 -14 -12 -30 -20 -17 -9 -63
-46 -102 -83 -74 -69 -80 -68 -22 4 46 57 154 127 154 99z m39 -160 c16 -8 45
-33 64 -55 l34 -41 17 26 c9 14 35 39 58 55 130 95 288 -47 305 -275 9 -113
-27 -165 -149 -219 -184 -81 -460 -47 -567 69 -49 53 -58 96 -42 189 27 161
111 264 214 266 21 0 51 -7 66 -15z m-294 -495 c4 -6 -5 -20 -18 -31 -14 -10
-28 -32 -32 -47 -6 -26 -47 -82 -61 -82 -4 0 -4 28 -1 62 5 51 10 67 32 85 27
24 69 30 80 13z m861 -13 c23 -20 28 -34 32 -88 l4 -64 -32 30 c-18 17 -38 44
-46 61 -7 17 -20 36 -28 43 -8 7 -12 19 -9 27 8 21 49 17 79 -9z m-817 -78
c17 -48 13 -77 -10 -89 -11 -7 -22 -10 -24 -8 -8 8 -23 103 -18 115 10 25 41
14 52 -18z m151 4 c99 -26 311 -23 414 5 44 12 81 20 83 18 3 -2 -1 -23 -7
-46 -11 -39 -13 -41 -41 -35 -38 8 -95 -11 -114 -38 -8 -12 -15 -39 -15 -60 0
-46 35 -85 103 -113 41 -17 44 -21 70 -98 15 -45 30 -88 33 -96 9 -26 -71
-106 -139 -140 -152 -75 -342 -54 -460 50 -35 30 -74 88 -69 100 1 3 14 41 30
84 24 69 31 81 57 89 54 18 106 58 120 91 30 72 -19 132 -108 130 -58 -1 -67
6 -67 55 0 30 2 33 23 27 12 -4 51 -14 87 -23z m583 14 c3 -7 1 -33 -4 -58 -4
-24 -8 -47 -9 -52 0 -4 -11 0 -25 9 -28 18 -30 35 -14 83 11 32 42 43 52 18z
m-873 -356 c0 -22 -4 -43 -10 -46 -6 -4 -10 12 -10 39 0 25 5 46 10 46 6 0 10
-18 10 -39z m160 29 c0 -32 -48 -127 -86 -170 -49 -54 -83 -65 -86 -27 -3 44
3 63 31 97 15 19 35 49 44 67 13 24 25 33 49 36 18 2 36 5 41 5 4 1 7 -2 7 -8z
m689 4 c22 -5 37 -16 48 -38 9 -17 29 -47 44 -66 28 -34 34 -53 31 -97 -1 -15
-8 -23 -21 -23 -29 0 -107 94 -130 156 -30 80 -31 79 28 68z m140 -52 c0 -35
-3 -42 -9 -27 -12 28 -12 88 0 80 6 -3 10 -27 9 -53z m-846 -289 c23 -24 37
-43 31 -43 -18 0 -94 70 -110 101 -21 42 -6 57 18 17 11 -18 38 -52 61 -75z
m-123 57 c7 -13 7 -20 1 -20 -6 0 -15 9 -21 20 -7 13 -7 20 -1 20 6 0 15 -9
21 -20z m960 12 c0 -11 -22 -32 -32 -32 -5 0 -4 9 2 20 11 20 30 28 30 12z
m-676 -204 c44 -12 83 -23 85 -24 2 -2 0 -19 -3 -39 -8 -43 -35 -47 -65 -9
l-21 27 -40 -27 c-22 -14 -49 -26 -60 -26 -22 0 -41 35 -32 60 5 16 42 60 50
60 3 0 41 -10 86 -22z m480 -9 c29 -34 31 -42 16 -70 -14 -26 -44 -24 -88 6
l-37 25 -23 -25 c-28 -31 -61 -33 -64 -5 -4 55 -5 54 72 76 98 29 94 29 124
-7z"/>
<path d="M3244 1679 c-60 -30 -67 -117 -13 -163 81 -68 192 9 159 109 -18 55
-89 81 -146 54z m106 -39 c11 -11 20 -24 20 -30 0 -14 -37 -50 -52 -50 -16 0
-48 31 -48 47 0 15 35 53 50 53 6 0 19 -9 30 -20z m-80 -95 c0 -8 -6 -15 -14
-15 -17 0 -28 14 -19 24 12 12 33 6 33 -9z"/>
<path d="M3608 1661 c-27 -24 -33 -36 -33 -71 0 -113 164 -138 196 -30 31 102
-83 173 -163 101z m122 -21 c11 -11 20 -24 20 -30 0 -15 -38 -50 -54 -50 -14
0 -46 36 -46 52 0 11 38 48 50 48 6 0 19 -9 30 -20z m-80 -95 c0 -8 -6 -15
-14 -15 -17 0 -28 14 -19 24 12 12 33 6 33 -9z"/>
<path d="M3426 1498 c-58 -34 -82 -71 -68 -102 34 -76 179 -88 242 -21 30 32
20 66 -31 107 -49 40 -94 45 -143 16z m135 -54 c29 -31 18 -54 -36 -72 -32
-10 -46 -10 -78 0 -54 17 -67 40 -42 69 47 52 108 54 156 3z"/>
</g>
</svg>
