<?xml version="1.0" encoding="utf-8"?>
<!-- Uploaded to: SVG Repo, www.svgrepo.com, Generator: SVG Repo Mixer Tools -->
<svg width="800px" height="800px" viewBox="0 0 1024 1024" class="icon"  version="1.1" xmlns="http://www.w3.org/2000/svg"><path d="M728.7 949H365.4c-10.7 0-19.3-8.6-19.3-19.3V161.9c0-10.7 8.6-19.3 19.3-19.3h363.3c10.7 0 19.3 8.6 19.3 19.3v767.8c0 10.7-8.6 19.3-19.3 19.3zM749 603h77v324h-77zM282 927h-84.3V669.7c0-9.9 8.1-18 18-18H282V927z" fill="#CCCCCC" /><path d="M468.9 705.6s0.1 0.1 0.1 0.2l-10.6 65 55.5-30.7h0.2l55.5 30.7-10.6-65c0-0.1 0-0.2 0.1-0.2l44.9-46-62.1-9.5c-0.1 0-0.1-0.1-0.2-0.1l-27.8-59.1-27.7 59.1c0 0.1-0.1 0.1-0.2 0.1l-62.1 9.5 45 46z" fill="#666666" /><path d="M943.4 919.5h-36.5V632c0-30.3-24.7-55-55-55h-79V109.9c0-30.3-24.7-55-55-55H309c-30.3 0-55 24.7-55 55V577h-79.1c-30.3 0-55 24.7-55 55v287.5H81.6c-9.3 0-16.9 7.6-16.9 16.9v6.3c0 9.3 7.6 16.9 16.9 16.9h198.8c1.8 0.3 3.7 0.5 5.6 0.5h454.9c1.9 0 3.8-0.2 5.6-0.5h196.9c9.3 0 16.9-7.6 16.9-16.9v-6.3c-0.1-9.3-7.7-16.9-16.9-16.9zM773.8 617h78c8.3 0 15 6.7 15 15v285.5h-93V617zM309 94.9h408.9c8.3 0 15 6.7 15 15v809.6h-66.4v-80.9c0-6.5-12.2-11.8-27.3-11.8H385.5c-15.1 0-27.3 5.3-27.3 11.8v80.9H294V109.9c0-8.3 6.7-15 15-15zM159.8 632c0-8.3 6.7-15 15-15h78v300.5h-93V632z" fill="#666666" /><path d="M387.6 231.7h52.5v52.5h-52.5zM590.7 231.7h52.5v52.5h-52.5zM387.6 352h52.5v52.5h-52.5zM387.6 468h52.5v52.5h-52.5zM590.7 352h52.5v52.5h-52.5zM590.7 468h52.5v52.5h-52.5z" fill="#666666" /></svg>